<?xml version="1.0" encoding="UTF-8"?>
<svg width="678px" height="66px" viewBox="0 0 678 66" version="1.1" xmlns="http://www.w3.org/2000/svg" xmlns:xlink="http://www.w3.org/1999/xlink">
    <!-- Generator: Sketch 52.5 (67469) - http://www.bohemiancoding.com/sketch -->
    <title>logotype</title>
    <desc>Created with Sketch.</desc>
    <g id="Symbols" stroke="none" stroke-width="1" fill="none" fill-rule="evenodd">
        <g id="Artboard" transform="translate(-6.000000, -65.000000)" fill="#093C6D">
            <path d="M6,96.2670898 L6,94.4433594 C7.18652937,94.3554683 7.89330941,94.2785648 8.12036133,94.2126465 C8.34741324,94.1467282 8.5415031,94.0441901 8.70263672,93.9050293 C8.86377034,93.7658684 9.02856361,93.5461441 9.19702148,93.2458496 C9.36547936,92.9455551 9.86718333,91.8286229 10.7021484,89.8950195 C11.0830097,88.9868119 11.8154243,87.1923962 12.8994141,84.5117188 L18.6342773,70.3613281 L20.5678711,65.3735352 L23.6879883,65.3735352 L33.5097656,88.3129883 L34.8720703,91.3232422 L35.7509766,93.3447266 C35.8974617,93.6083998 36.0366204,93.7988275 36.168457,93.9160156 C36.3002936,94.0332037 36.4504386,94.1210935 36.6188965,94.1796875 C36.7873544,94.2382815 37.2158169,94.2895506 37.9042969,94.3334961 C38.1240245,94.3627931 38.4462869,94.3994138 38.8710938,94.4433594 L38.8710938,96.2670898 L32.7626953,96.1352539 L25.050293,96.2670898 L25.050293,94.4433594 C26.8227628,94.3701168 27.8225086,94.2712409 28.0495605,94.1467285 C28.2766125,94.0222162 28.3901367,93.813478 28.3901367,93.5205078 C28.3901367,93.154295 28.2216814,92.5537151 27.8847656,91.71875 L25.9951172,86.8847656 L14.7011719,86.8847656 L13.734375,89.5214844 C13.0019495,91.5429789 12.6357422,92.8027319 12.6357422,93.3007812 C12.6357422,93.6523455 12.7529285,93.9013665 12.9873047,94.0478516 C13.3388689,94.2529307 14.3862218,94.3847653 16.1293945,94.4433594 L16.1293945,96.2670898 L11.0537109,96.1352539 L6,96.2670898 Z M15.7119141,84.3798828 C17.0888741,84.4238283 18.6489171,84.4458008 20.3920898,84.4458008 C22.0766686,84.4458008 23.5854426,84.4238283 24.918457,84.3798828 L20.2163086,73.0419922 L15.7119141,84.3798828 Z M42.483539,67.3510742 L42.483539,65.5493164 C42.8204548,65.5493164 43.9923181,65.578613 45.999164,65.637207 C46.9806143,65.6665041 48.3722019,65.6811523 50.1739687,65.6811523 C51.7120624,65.6811523 53.0304086,65.6518558 54.1290469,65.5932617 C55.9454622,65.5200192 57.446912,65.4833984 58.6334414,65.4833984 C60.9332576,65.4833984 62.6544318,65.6481917 63.7970156,65.9777832 C64.9395994,66.3073747 65.9137108,66.9921823 66.7193789,68.0322266 C67.525047,69.0722708 67.927875,70.339348 67.927875,71.8334961 C67.927875,73.6059659 67.3785641,75.2172779 66.2799258,76.6674805 C65.1812875,78.117683 63.4894098,79.2675739 61.2042422,80.1171875 C61.5704549,80.7763705 61.9879312,81.4501919 62.4566836,82.1386719 C62.9254359,82.8271519 63.2000914,83.2446282 63.2806582,83.3911133 C63.361225,83.5375984 63.4454527,83.6767572 63.5333437,83.8085938 L66.9391055,88.9282227 C67.8473131,90.2905342 68.3380309,91.0229487 68.4112734,91.1254883 C69.5099117,92.5903394 70.1837331,93.4545885 70.4327578,93.7182617 C70.6817825,93.9819349 70.9234793,94.1650385 71.1578555,94.2675781 C71.3922316,94.3701177 71.8536528,94.4287109 72.5421328,94.4433594 L72.5421328,96.2670898 C70.2862621,96.2084958 68.6529777,96.1791992 67.6422305,96.1791992 C66.4703496,96.1791992 65.3058105,96.2084958 64.1485781,96.2670898 C64.0753356,95.9448226 63.8995561,95.5273463 63.6212344,95.0146484 L58.9190859,87.2583008 C57.5714229,85.0317271 56.4288562,83.2812564 55.4913515,82.0068359 C55.0225992,81.3623015 54.5685022,80.8789079 54.1290469,80.5566406 L54.3707461,79.831543 C56.1285674,79.890137 57.4542377,79.7106954 58.3477969,79.2932129 C59.241356,78.8757303 59.995743,78.1286675 60.6109805,77.052002 C61.2262179,75.9753364 61.533832,74.7705145 61.533832,73.4375 C61.533832,72.089837 61.2115696,70.9692427 60.5670351,70.0756836 C59.9225007,69.1821244 59.1241688,68.5595721 58.1720156,68.2080078 C57.5567782,67.9882802 56.4581563,67.878418 54.8761172,67.878418 C54.1729887,67.878418 53.4771948,67.9370111 52.7887148,68.0541992 C52.7447693,68.5815456 52.7008244,69.7680572 52.6568789,71.6137695 C52.5689878,75.7592981 52.525043,78.5278251 52.525043,79.9194336 C52.525043,82.1167102 52.5470154,84.4457885 52.5909609,86.9067383 C52.649555,89.9243315 52.6934998,91.6381815 52.7227969,92.0483398 C52.7667424,92.8686564 52.847308,93.4033191 52.9644961,93.6523438 C53.0230901,93.7695318 53.118304,93.8757319 53.2501406,93.9709473 C53.3819772,94.0661626 53.5943774,94.1430661 53.8873476,94.2016602 C54.1803179,94.2602542 55.0299187,94.3041991 56.4361758,94.3334961 L56.4361758,96.2670898 C53.9312804,96.1791988 51.3971261,96.1352539 48.8336367,96.1352539 C46.548469,96.1352539 44.431791,96.1791988 42.483539,96.2670898 L42.483539,94.3334961 C44.1534693,94.2749021 45.1422289,94.1943365 45.4498476,94.0917969 C45.6256298,94.0478513 45.7538023,93.9746099 45.8343691,93.8720703 C45.9149359,93.7695307 45.9771912,93.5644547 46.0211367,93.2568359 C46.1236763,92.685544 46.1969177,91.8212948 46.2408633,90.6640625 L46.4166445,84.2480469 L46.4166445,76.0961914 L46.3287539,71.4599609 C46.2994569,69.6288971 46.2115671,68.5302753 46.065082,68.1640625 C45.9918395,68.0029289 45.8819773,67.8784184 45.7354922,67.7905273 C45.3839279,67.6147452 44.2999544,67.4682623 42.483539,67.3510742 Z M75.5173711,96.2670898 L75.5173711,94.3994141 C77.1726528,94.282226 78.1540883,94.1650396 78.461707,94.0478516 C78.6374891,93.9892575 78.7766479,93.8867195 78.8791875,93.7402344 C79.0110241,93.5498037 79.0989138,93.2714862 79.1428593,92.9052734 C79.2453989,92.0703083 79.3332887,90.2465961 79.4065312,87.434082 C79.4504767,86.0717705 79.4724492,83.728044 79.4724492,80.402832 C79.4724492,77.4291844 79.4504767,74.796154 79.4065312,72.5036621 C79.3625857,70.2111702 79.2673718,68.845217 79.1208867,68.4057617 C79.0622926,68.2006826 78.9707408,68.0432134 78.8462285,67.9333496 C78.7217161,67.8234858 78.4836814,67.7392581 78.1321172,67.6806641 C77.1653154,67.5195304 76.2937421,67.4243166 75.5173711,67.3950195 L75.5173711,65.5273438 C78.5349643,65.6152348 80.6150216,65.6591797 81.7576054,65.6591797 C83.266402,65.6591797 84.7825002,65.6152348 86.3059453,65.5273438 L88.239539,69.8779297 L89.777625,73.1738281 L96.7649297,87.5878906 C98.2590777,84.702134 99.379672,82.4609455 100.126746,80.8642578 L103.027137,74.777832 C104.638473,71.3793775 105.62357,69.288334 105.982459,68.5046387 C106.341347,67.7209433 106.747838,66.7285216 107.201941,65.5273438 C109.120896,65.6298833 110.351353,65.6811523 110.893348,65.6811523 L117.441199,65.5273438 L117.441199,67.3950195 L117.133582,67.3950195 C115.654082,67.380371 114.716592,67.5524884 114.321082,67.911377 C113.925572,68.2702655 113.72782,68.9623972 113.72782,69.987793 C113.72782,71.2036194 113.720496,72.1264617 113.705848,72.7563477 L113.595984,78.9306641 L113.595984,86.6430664 C113.595984,88.5180758 113.603308,89.6166976 113.617957,89.9389648 C113.735145,91.7993257 113.837683,92.9418924 113.925574,93.3666992 C113.96952,93.5717784 114.050085,93.7365716 114.167273,93.861084 C114.284461,93.9855963 114.452917,94.0808102 114.672644,94.1467285 C114.892372,94.2126468 115.815214,94.2968745 117.441199,94.3994141 L117.441199,96.2670898 L110.431922,96.1352539 L103.576453,96.2670898 L103.576453,94.3994141 C105.392868,94.34082 106.429235,94.2346199 106.685584,94.0808105 C106.941933,93.9270012 107.125037,93.5791043 107.2349,93.0371094 C107.344764,92.4951145 107.399695,90.6787264 107.399695,87.5878906 L107.399695,71.5917969 L102.302039,81.8969727 L99.8630742,87.0166016 C99.2185397,88.3642646 98.3103457,90.3198114 97.1384648,92.8833008 C96.4206878,94.4360429 95.8567286,95.6884718 95.4465703,96.640625 L93.9524297,96.640625 C93.4250833,95.4101501 92.6633721,93.7255966 91.6672734,91.5869141 C89.9680462,87.9247864 88.6789965,85.1928801 87.8000859,83.3911133 L82.0212773,71.5917969 L82.0212773,82.3803711 C82.0212773,84.1821379 82.0469118,86.3244505 82.0981816,88.807373 C82.1494514,91.2902956 82.2043825,92.6965316 82.2629765,93.026123 C82.3215706,93.3557145 82.4131224,93.5937493 82.5376347,93.7402344 C82.6621471,93.8867195 82.8818714,94.01123 83.1968144,94.1137695 C83.5117574,94.2163091 84.4089652,94.311523 85.8884648,94.3994141 L85.8884648,96.2670898 C84.2478316,96.1791988 82.5706023,96.1352539 80.8567265,96.1352539 C78.6155044,96.1352539 76.835737,96.1791988 75.5173711,96.2670898 Z M137.445246,80.1171875 L140.213801,75.6347656 C140.682553,74.8290975 142.074141,72.3755088 144.388605,68.2739258 C145.194274,66.8676688 145.69964,65.9521506 145.904719,65.5273438 L149.354426,65.5273438 L149.354426,66.5161133 C147.581956,68.9038205 145.670354,71.7089683 143.619562,74.9316406 C141.568771,78.154313 140.301694,80.2270462 139.818293,81.1499023 C139.496026,81.7797883 139.283625,82.3290992 139.181086,82.7978516 C139.093195,83.1347673 139.04925,83.6840782 139.04925,84.4458008 L139.04925,88.1591797 C139.04925,90.0195406 139.096857,91.3745075 139.192072,92.2241211 C139.287288,93.0737347 139.400812,93.5864249 139.532648,93.762207 C139.664485,93.9379892 139.884209,94.0698238 140.191828,94.1577148 C140.499447,94.2456059 141.466234,94.3041991 143.092219,94.3334961 L143.092219,96.2670898 C140.294353,96.1791988 137.767523,96.1352539 135.511652,96.1352539 C133.314376,96.1352539 131.087835,96.1791988 128.831965,96.2670898 L128.831965,94.3334961 C130.501895,94.2749021 131.479668,94.2089847 131.765314,94.1357422 C132.05096,94.0624996 132.248712,93.9526375 132.358576,93.8061523 C132.46844,93.6596672 132.545343,93.2202185 132.589289,92.487793 C132.67718,90.8178627 132.721125,89.3969785 132.721125,88.2250977 L132.721125,84.050293 C132.721125,83.7133772 132.442807,83.0175834 131.886164,81.9628906 C130.509204,79.4433468 129.037051,76.9604615 127.46966,74.5141602 C126.19524,72.5219627 125.008728,70.925299 123.91009,69.7241211 C123.177664,68.9331015 122.65765,68.4570321 122.350031,68.2958984 C122.159601,68.2080074 121.515076,68.1640625 120.416437,68.1640625 L120.416437,66.5161133 L125.074641,65.5932617 C125.86566,65.4174796 126.67864,65.2197277 127.513605,65 C128.407165,65.4980494 129.059014,65.9411602 129.469172,66.3293457 C129.87933,66.7175312 130.443289,67.4462837 131.161066,68.515625 C132.230408,70.0976642 133.292409,71.9213764 134.347102,73.9868164 C136.060977,77.3120283 137.093682,79.3554649 137.445246,80.1171875 Z M164.203828,94.3994141 C165.932352,94.311523 166.921112,94.2309574 167.170137,94.1577148 C167.33127,94.0991208 167.466767,94.0039069 167.576631,93.8720703 C167.686495,93.7402337 167.778046,93.4692403 167.851289,93.059082 C167.93918,92.5024386 168.041718,91.1547958 168.158906,89.0161133 C168.2175,87.8002869 168.246797,86.2182715 168.246797,84.2700195 L168.246797,77.2167969 L168.158906,70.8227539 C168.144258,69.7534126 168.100313,69.0576188 168.02707,68.7353516 C167.953828,68.4130843 167.847628,68.1750496 167.708467,68.0212402 C167.569306,67.8674309 167.338595,67.7465825 167.016328,67.6586914 C166.694061,67.5708003 165.75657,67.4755865 164.203828,67.3730469 L164.203828,65.5273438 C166.064189,65.6152348 167.433804,65.6591797 168.312715,65.6591797 L171.49875,65.5932617 L173.520234,65.5273438 C176.537827,69.4677931 180.192576,74.0087634 184.48459,79.1503906 C187.575426,82.8564638 190.138876,85.7568255 192.175019,87.8515625 L192.175019,82.7758789 C192.175019,74.8949801 192.08713,70.258796 191.911348,68.8671875 C191.852754,68.3251926 191.720919,67.9736336 191.51584,67.8125 C191.178924,67.5488268 190.036357,67.4023439 188.088105,67.3730469 L188.088105,65.5273438 C189.875224,65.6152348 191.515832,65.6591797 193.00998,65.6591797 C194.460183,65.6591797 196.32784,65.6152348 198.613008,65.5273438 L198.613008,67.3730469 C196.825889,67.4169924 195.763888,67.548827 195.426973,67.7685547 C195.309784,67.8417972 195.229219,67.9516594 195.185273,68.0981445 C194.965546,68.8305701 194.822725,70.5041373 194.756807,73.1188965 C194.690888,75.7336557 194.65793,77.663568 194.65793,78.9086914 C194.65793,88.649951 194.753143,94.5605365 194.943574,96.640625 L194.65793,96.8383789 C193.427455,96.6332998 192.175026,96.442872 190.900605,96.2670898 C186.169136,90.9789775 179.460219,83.0396037 170.773652,72.4487305 L170.773652,83.3911133 C170.773652,85.6616324 170.817597,88.0273314 170.905488,90.4882812 C170.964082,92.1875085 171.051972,93.220213 171.16916,93.5864258 C171.227754,93.7622079 171.32663,93.9050287 171.465791,94.0148926 C171.604952,94.1247564 171.850311,94.2016599 172.201875,94.2456055 C173.154028,94.3627936 173.849822,94.4213867 174.289277,94.4213867 C174.377168,94.4213867 174.523651,94.4140626 174.72873,94.3994141 L174.72873,96.1791992 C171.945513,96.1499022 170.363498,96.1352539 169.982637,96.1352539 C168.561731,96.1352539 166.635481,96.1791988 164.203828,96.2670898 L164.203828,94.3994141 Z M201.786,96.2670898 L201.786,94.4433594 C202.972529,94.3554683 203.679309,94.2785648 203.906361,94.2126465 C204.133413,94.1467282 204.327503,94.0441901 204.488637,93.9050293 C204.64977,93.7658684 204.814564,93.5461441 204.983021,93.2458496 C205.151479,92.9455551 205.653183,91.8286229 206.488148,89.8950195 C206.86901,88.9868119 207.601424,87.1923962 208.685414,84.5117188 L214.420277,70.3613281 L216.353871,65.3735352 L219.473988,65.3735352 L229.295766,88.3129883 L230.65807,91.3232422 L231.536976,93.3447266 C231.683462,93.6083998 231.82262,93.7988275 231.954457,93.9160156 C232.086294,94.0332037 232.236439,94.1210935 232.404896,94.1796875 C232.573354,94.2382815 233.001817,94.2895506 233.690297,94.3334961 C233.910024,94.3627931 234.232287,94.3994138 234.657094,94.4433594 L234.657094,96.2670898 L228.548695,96.1352539 L220.836293,96.2670898 L220.836293,94.4433594 C222.608763,94.3701168 223.608509,94.2712409 223.83556,94.1467285 C224.062612,94.0222162 224.176137,93.813478 224.176137,93.5205078 C224.176137,93.154295 224.007681,92.5537151 223.670766,91.71875 L221.781117,86.8847656 L210.487172,86.8847656 L209.520375,89.5214844 C208.787949,91.5429789 208.421742,92.8027319 208.421742,93.3007812 C208.421742,93.6523455 208.538928,93.9013665 208.773305,94.0478516 C209.124869,94.2529307 210.172222,94.3847653 211.915394,94.4433594 L211.915394,96.2670898 L206.839711,96.1352539 L201.786,96.2670898 Z M211.497914,84.3798828 C212.874874,84.4238283 214.434917,84.4458008 216.17809,84.4458008 C217.862668,84.4458008 219.371442,84.4238283 220.704457,84.3798828 L216.002308,73.0419922 L211.497914,84.3798828 Z M246.992683,96.4208984 C245.74756,93.3447112 244.553724,90.4223771 243.411141,87.6538086 L240.291023,80.2050781 C237.844722,74.3603223 236.33961,70.8776911 235.775642,69.7570801 C235.211675,68.636469 234.783212,67.9956063 234.490242,67.8344727 C234.050787,67.6000965 233.142593,67.4682619 231.765633,67.4389648 L231.765633,65.5273438 C235.281275,65.6298833 237.419926,65.6811523 238.181648,65.6811523 L246.069832,65.5273438 L246.069832,67.4389648 C244.839357,67.4536134 243.945811,67.5268548 243.389168,67.6586914 C243.066901,67.731934 242.843514,67.8381341 242.719002,67.9772949 C242.594489,68.1164558 242.532234,68.2958973 242.532234,68.515625 C242.532234,68.9550803 243.015628,70.346668 243.98243,72.6904297 C244.539073,74.0380927 244.835701,74.7668452 244.872322,74.876709 C244.908943,74.9865728 244.95655,75.1220695 245.015144,75.2832031 L250.574226,88.840332 L255.452156,76.7553711 C255.569344,76.4770494 256.089359,75.0927859 257.012215,72.6025391 C257.671398,70.8447178 258.074226,69.6655303 258.220711,69.0649414 C258.250008,68.8891593 258.264656,68.7133798 258.264656,68.5375977 C258.264656,68.288573 258.224373,68.1018073 258.143807,67.9772949 C258.06324,67.8527826 257.95704,67.7612308 257.825203,67.7026367 C257.722663,67.6586912 257.458994,67.6220705 257.034187,67.5927734 C256.082034,67.5048824 255.276378,67.4536134 254.617195,67.4389648 L254.617195,65.5273438 L260.19825,65.6591797 L264.944344,65.5273438 L264.944344,67.4389648 C263.523438,67.5708014 262.69581,67.7246085 262.461433,67.9003906 C262.065924,68.2080094 261.238295,69.8705904 259.978523,72.8881836 L258.418465,76.5356445 L255.452156,83.6108398 C252.932612,89.6460263 251.226086,93.9160031 250.332527,96.4208984 L246.992683,96.4208984 Z M284.179348,80.1171875 L286.947902,75.6347656 C287.416655,74.8290975 288.808242,72.3755088 291.122707,68.2739258 C291.928375,66.8676688 292.433741,65.9521506 292.63882,65.5273438 L296.088527,65.5273438 L296.088527,66.5161133 C294.316057,68.9038205 292.404455,71.7089683 290.353664,74.9316406 C288.302872,78.154313 287.035795,80.2270462 286.552394,81.1499023 C286.230127,81.7797883 286.017727,82.3290992 285.915187,82.7978516 C285.827296,83.1347673 285.783351,83.6840782 285.783351,84.4458008 L285.783351,88.1591797 C285.783351,90.0195406 285.830958,91.3745075 285.926174,92.2241211 C286.021389,93.0737347 286.134913,93.5864249 286.26675,93.762207 C286.398586,93.9379892 286.618311,94.0698238 286.92593,94.1577148 C287.233548,94.2456059 288.200335,94.3041991 289.82632,94.3334961 L289.82632,96.2670898 C287.028455,96.1791988 284.501624,96.1352539 282.245754,96.1352539 C280.048477,96.1352539 277.821937,96.1791988 275.566066,96.2670898 L275.566066,94.3334961 C277.235996,94.2749021 278.21377,94.2089847 278.499416,94.1357422 C278.785062,94.0624996 278.982814,93.9526375 279.092678,93.8061523 C279.202541,93.6596672 279.279445,93.2202185 279.32339,92.487793 C279.411282,90.8178627 279.455226,89.3969785 279.455226,88.2250977 L279.455226,84.050293 C279.455226,83.7133772 279.176909,83.0175834 278.620265,81.9628906 C277.243305,79.4433468 275.771152,76.9604615 274.203762,74.5141602 C272.929341,72.5219627 271.74283,70.925299 270.644191,69.7241211 C269.911766,68.9331015 269.391751,68.4570321 269.084133,68.2958984 C268.893702,68.2080074 268.249177,68.1640625 267.150539,68.1640625 L267.150539,66.5161133 L271.808742,65.5932617 C272.599762,65.4174796 273.412742,65.2197277 274.247707,65 C275.141266,65.4980494 275.793115,65.9411602 276.203273,66.3293457 C276.613432,66.7175312 277.177391,67.4462837 277.895168,68.515625 C278.964509,70.0976642 280.02651,71.9213764 281.081203,73.9868164 C282.795079,77.3120283 283.827783,79.3554649 284.179348,80.1171875 Z M340.55707,92.2900391 L339.546328,94.5092773 C337.715264,95.4760791 336.070993,96.1389142 334.613467,96.4978027 C333.15594,96.8566912 331.33589,97.0361328 329.153262,97.0361328 C326.047777,97.0361328 323.301223,96.5454151 320.913515,95.5639648 C319.038506,94.7729453 317.449166,93.7255925 316.145449,92.421875 C314.841732,91.1181575 313.838324,89.7045975 313.135195,88.1811523 C312.065854,85.8813362 311.531191,83.3838025 311.531191,80.6884766 C311.531191,76.0741957 313.109545,72.3059228 316.266299,69.3835449 C319.423053,66.461167 323.879795,65 329.63666,65 C331.614209,65 333.390314,65.1464829 334.965029,65.4394531 C336.539744,65.7324233 338.367118,66.2524377 340.447207,66.9995117 L340.55707,67.2851562 C340.322694,67.9736363 340.13959,68.8378854 340.007754,69.8779297 C339.788026,71.5332114 339.648867,73.0639578 339.590273,74.4702148 L337.876406,74.4702148 C337.847109,72.8588787 337.773868,71.5698291 337.65668,70.6030273 C336.675229,69.5776316 335.572945,68.8122584 334.349795,68.3068848 C333.126644,67.8015111 331.562939,67.5488281 329.658633,67.5488281 C326.216233,67.5488281 323.462354,68.6364637 321.396914,70.8117676 C319.331474,72.9870714 318.298769,76.0229297 318.298769,79.9194336 C318.298769,82.2778438 318.646666,84.3359287 319.342471,86.09375 C320.038275,87.8515713 320.964779,89.3054142 322.122012,90.4553223 C323.279244,91.6052304 324.443783,92.443845 325.615664,92.9711914 C327.212352,93.6743199 329.145926,94.0258789 331.416445,94.0258789 C332.910593,94.0258789 334.324153,93.8574236 335.657168,93.5205078 C336.990182,93.1835921 338.440363,92.6049846 340.007754,91.784668 L340.55707,92.2900391 Z M344.828695,81.2597656 C344.828695,78.5790882 345.235185,76.2426857 346.048178,74.2504883 C346.86117,72.2582908 348.022047,70.5664132 349.530844,69.1748047 C351.03964,67.7831962 352.680249,66.7797882 354.452719,66.1645508 C356.723238,65.3881797 359.198799,65 361.879476,65 C364.545505,65 366.962473,65.3735314 369.130453,66.1206055 C370.741789,66.6918974 372.166335,67.5158638 373.404135,68.5925293 C374.641934,69.6691948 375.583086,70.7714787 376.227621,71.8994141 C376.872155,73.0273494 377.359211,74.26513 377.688803,75.612793 C378.018394,76.960456 378.183187,78.4472575 378.183187,80.0732422 C378.183187,82.8271622 377.707118,85.383289 376.754965,87.7416992 C376.051836,89.4995205 375.022794,91.0595635 373.667806,92.421875 C372.312819,93.7841865 370.771087,94.8315393 369.042562,95.5639648 C366.669504,96.5454151 363.95957,97.0361328 360.912679,97.0361328 C357.616765,97.0361328 354.785982,96.439215 352.420248,95.2453613 C350.054513,94.0515077 348.197842,92.2900507 346.850179,89.9609375 C345.502517,87.6318243 344.828695,84.7314627 344.828695,81.2597656 Z M351.596273,79.9633789 C351.596273,83.3764819 352.065019,86.19994 353.002523,88.4338379 C353.940028,90.6677358 355.141188,92.2460891 356.606039,93.1689453 C358.07089,94.0918015 359.799388,94.5532227 361.791586,94.5532227 C363.637298,94.5532227 365.288893,94.1137739 366.74642,93.2348633 C368.203947,92.3559526 369.346513,90.8691511 370.174154,88.7744141 C371.001795,86.679677 371.415609,84.1381985 371.415609,81.1499023 C371.415609,79.0991108 371.192223,77.2241296 370.745443,75.5249023 C370.298664,73.8256751 369.657801,72.3791564 368.822836,71.1853027 C367.987871,69.9914491 367.002773,69.079593 365.867513,68.449707 C364.732254,67.8198211 363.227142,67.5048828 361.352133,67.5048828 C359.21345,67.5048828 357.3934,68.0065868 355.891928,69.0100098 C354.390455,70.0134328 353.299158,71.4965722 352.618002,73.4594727 C351.936846,75.4223731 351.596273,77.5903202 351.596273,79.9633789 Z M381.905496,67.3510742 L381.905496,65.5273438 L389.046609,65.6591797 L392.012918,65.6152344 L394.979226,65.5493164 L395.792215,65.5273438 L395.792215,67.3510742 C394.210175,67.3510742 393.206768,67.490233 392.781961,67.7685547 C392.562233,67.9003913 392.41575,68.1567364 392.342508,68.5375977 C392.137428,69.4458053 392.03489,71.445297 392.03489,74.5361328 L392.03489,79.6337891 L392.056863,82.2045898 C392.056863,84.8852673 392.08616,86.5405242 392.144754,87.1704102 C392.27659,88.5473702 392.620825,89.6569782 393.177469,90.4992676 C393.734112,91.3415569 394.587375,92.0227025 395.737283,92.5427246 C396.887191,93.0627467 398.348358,93.3227539 400.120828,93.3227539 C402.156971,93.3227539 403.779269,92.974857 404.987771,92.2790527 C406.196273,91.5832485 407.056861,90.6787165 407.569558,89.5654297 C408.082256,88.4521429 408.338601,86.3354648 408.338601,83.215332 L408.338601,78.7329102 C408.338601,74.8657033 408.331277,72.5073285 408.316629,71.6577148 C408.272683,69.8120025 408.170145,68.6987324 408.009012,68.3178711 C407.906472,68.0834949 407.738017,67.9077154 407.50364,67.7905273 C407.02024,67.5415027 405.965563,67.3950198 404.339578,67.3510742 L404.339578,65.5273438 C406.990958,65.6298833 408.56565,65.6811523 409.063699,65.6811523 C409.195536,65.6811523 409.393288,65.6738282 409.656961,65.6591797 L414.53489,65.5273438 L414.53489,67.3510742 C413.172579,67.3510742 412.315654,67.4609364 411.96409,67.6806641 C411.788308,67.7978521 411.645487,68.0212386 411.535623,68.3508301 C411.425759,68.6804216 411.319559,70.163561 411.217019,72.800293 C411.11448,75.4370249 411.063211,77.5170822 411.063211,79.0405273 L411.063211,84.2041016 C411.063211,85.5224675 410.967997,86.8847586 410.777566,88.2910156 C410.587136,89.6972727 410.202618,90.8984325 409.624002,91.8945312 C409.045386,92.89063 408.228743,93.7914999 407.174051,94.597168 C406.119358,95.4028361 404.866929,96.0107401 403.416726,96.4208984 C401.966524,96.8310567 400.289294,97.0361328 398.384988,97.0361328 C396.158414,97.0361328 394.078357,96.7358428 392.144754,96.1352539 C390.738497,95.6957986 389.588606,95.1062049 388.695047,94.3664551 C387.801488,93.6267053 387.120342,92.7990768 386.65159,91.8835449 C386.182837,90.968013 385.897196,90.0854535 385.794656,89.2358398 C385.721413,88.7084935 385.684793,87.2876092 385.684793,84.9731445 L385.706765,80.7543945 L385.706765,75.1733398 C385.706765,73.1225483 385.662821,71.2768637 385.574929,69.6362305 C385.530984,68.991696 385.443094,68.5229507 385.311258,68.2299805 C385.238015,68.0688469 385.054911,67.8784191 384.761941,67.6586914 L381.905496,67.3510742 Z M418.191281,94.3994141 C419.919805,94.311523 420.908565,94.2309574 421.15759,94.1577148 C421.318723,94.0991208 421.45422,94.0039069 421.564084,93.8720703 C421.673948,93.7402337 421.765499,93.4692403 421.838742,93.059082 C421.926633,92.5024386 422.029171,91.1547958 422.146359,89.0161133 C422.204953,87.8002869 422.23425,86.2182715 422.23425,84.2700195 L422.23425,77.2167969 L422.146359,70.8227539 C422.131711,69.7534126 422.087766,69.0576188 422.014523,68.7353516 C421.941281,68.4130843 421.835081,68.1750496 421.69592,68.0212402 C421.556759,67.8674309 421.326048,67.7465825 421.003781,67.6586914 C420.681514,67.5708003 419.744023,67.4755865 418.191281,67.3730469 L418.191281,65.5273438 C420.051642,65.6152348 421.421257,65.6591797 422.300168,65.6591797 L425.486203,65.5932617 L427.507687,65.5273438 C430.52528,69.4677931 434.180029,74.0087634 438.472043,79.1503906 C441.562879,82.8564638 444.126329,85.7568255 446.162472,87.8515625 L446.162472,82.7758789 C446.162472,74.8949801 446.074583,70.258796 445.898801,68.8671875 C445.840207,68.3251926 445.708372,67.9736336 445.503293,67.8125 C445.166377,67.5488268 444.02381,67.4023439 442.075558,67.3730469 L442.075558,65.5273438 C443.862677,65.6152348 445.503285,65.6591797 446.997433,65.6591797 C448.447636,65.6591797 450.315293,65.6152348 452.600461,65.5273438 L452.600461,67.3730469 C450.813342,67.4169924 449.751341,67.548827 449.414426,67.7685547 C449.297237,67.8417972 449.216672,67.9516594 449.172726,68.0981445 C448.952999,68.8305701 448.810178,70.5041373 448.74426,73.1188965 C448.678341,75.7336557 448.645383,77.663568 448.645383,78.9086914 C448.645383,88.649951 448.740596,94.5605365 448.931027,96.640625 L448.645383,96.8383789 C447.414908,96.6332998 446.162479,96.442872 444.888058,96.2670898 C440.156589,90.9789775 433.447672,83.0396037 424.761105,72.4487305 L424.761105,83.3911133 C424.761105,85.6616324 424.80505,88.0273314 424.892941,90.4882812 C424.951535,92.1875085 425.039425,93.220213 425.156613,93.5864258 C425.215207,93.7622079 425.314083,93.9050287 425.453244,94.0148926 C425.592405,94.1247564 425.837764,94.2016599 426.189328,94.2456055 C427.141481,94.3627936 427.837275,94.4213867 428.27673,94.4213867 C428.364621,94.4213867 428.511104,94.4140626 428.716183,94.3994141 L428.716183,96.1791992 C425.932966,96.1499022 424.350951,96.1352539 423.97009,96.1352539 C422.549184,96.1352539 420.622934,96.1791988 418.191281,96.2670898 L418.191281,94.3994141 Z M462.606949,96.2670898 L462.606949,94.465332 C464.36477,94.406738 465.408461,94.2895517 465.738052,94.1137695 C466.067644,93.9379874 466.29103,93.6450216 466.408219,93.2348633 C466.569352,92.6049773 466.649918,90.7080236 466.649918,87.5439453 L466.649918,74.3823242 C466.649918,70.7934391 466.627945,68.7866232 466.584,68.3618164 L463.44191,68.3618164 C461.859871,68.3618164 460.468283,68.4130854 459.267105,68.515625 C458.783704,68.5595705 458.505387,68.6181637 458.432144,68.6914062 C458.329605,68.7792973 458.241715,69.0356424 458.168472,69.4604492 C457.978042,70.485845 457.86818,71.6357358 457.838883,72.9101562 L456.015152,72.9101562 C455.956558,69.9072115 455.919937,68.2153339 455.905289,67.8344727 C455.861343,67.1899382 455.788102,66.4941444 455.685562,65.7470703 L455.883316,65.5273438 C456.571796,65.6005863 457.304211,65.6518553 458.080582,65.6811523 C459.340354,65.7250979 461.764646,65.7470703 465.353531,65.7470703 L474.230484,65.7470703 C477.921909,65.7470703 480.390146,65.7250979 481.635269,65.6811523 C482.309101,65.6518553 482.990246,65.6005863 483.678726,65.5273438 L483.898453,65.7470703 C483.766616,66.6406295 483.686051,67.424313 483.656754,68.0981445 C483.642105,68.2153326 483.612809,69.8193205 483.568863,72.9101562 L481.745133,72.9101562 C481.715836,71.7675724 481.620622,70.6762747 481.459488,69.6362305 C481.371597,69.1088841 481.276383,68.7939458 481.173844,68.6914062 C481.085952,68.6181637 480.85158,68.5668947 480.470719,68.5375977 C479.269541,68.4204096 477.826684,68.3618164 476.142105,68.3618164 L473.000015,68.3618164 C472.95607,68.8745143 472.934097,70.8813302 472.934097,74.3823242 L472.934097,87.5439453 C472.934097,90.7080236 473.014663,92.6123015 473.175797,93.2568359 C473.278336,93.6376972 473.498061,93.9196768 473.834976,94.1027832 C474.171892,94.2858896 475.219245,94.406738 476.977066,94.465332 L476.977066,96.2670898 C474.135255,96.1352532 471.740259,96.0693359 469.792008,96.0693359 C467.711919,96.0693359 465.316923,96.1352532 462.606949,96.2670898 Z M487.269199,67.3510742 L487.269199,65.5493164 C487.606115,65.5493164 488.777978,65.578613 490.784824,65.637207 C491.766274,65.6665041 493.157862,65.6811523 494.959629,65.6811523 C496.497722,65.6811523 497.816068,65.6518558 498.914707,65.5932617 C500.731122,65.5200192 502.232572,65.4833984 503.419101,65.4833984 C505.718917,65.4833984 507.440092,65.6481917 508.582676,65.9777832 C509.725259,66.3073747 510.699371,66.9921823 511.505039,68.0322266 C512.310707,69.0722708 512.713535,70.339348 512.713535,71.8334961 C512.713535,73.6059659 512.164224,75.2172779 511.065586,76.6674805 C509.966947,78.117683 508.27507,79.2675739 505.989902,80.1171875 C506.356115,80.7763705 506.773591,81.4501919 507.242343,82.1386719 C507.711096,82.8271519 507.985751,83.2446282 508.066318,83.3911133 C508.146885,83.5375984 508.231113,83.6767572 508.319004,83.8085938 L511.724765,88.9282227 C512.632973,90.2905342 513.123691,91.0229487 513.196933,91.1254883 C514.295572,92.5903394 514.969393,93.4545885 515.218418,93.7182617 C515.467442,93.9819349 515.709139,94.1650385 515.943515,94.2675781 C516.177892,94.3701177 516.639313,94.4287109 517.327793,94.4433594 L517.327793,96.2670898 C515.071922,96.2084958 513.438638,96.1791992 512.42789,96.1791992 C511.25601,96.1791992 510.09147,96.2084958 508.934238,96.2670898 C508.860995,95.9448226 508.685216,95.5273463 508.406894,95.0146484 L503.704746,87.2583008 C502.357083,85.0317271 501.214516,83.2812564 500.277011,82.0068359 C499.808259,81.3623015 499.354162,80.8789079 498.914707,80.5566406 L499.156406,79.831543 C500.914227,79.890137 502.239898,79.7106954 503.133457,79.2932129 C504.027016,78.8757303 504.781403,78.1286675 505.39664,77.052002 C506.011878,75.9753364 506.319492,74.7705145 506.319492,73.4375 C506.319492,72.089837 505.99723,70.9692427 505.352695,70.0756836 C504.708161,69.1821244 503.909829,68.5595721 502.957676,68.2080078 C502.342438,67.9882802 501.243816,67.878418 499.661777,67.878418 C498.958649,67.878418 498.262855,67.9370111 497.574375,68.0541992 C497.530429,68.5815456 497.486484,69.7680572 497.442539,71.6137695 C497.354648,75.7592981 497.310703,78.5278251 497.310703,79.9194336 C497.310703,82.1167102 497.332675,84.4457885 497.376621,86.9067383 C497.435215,89.9243315 497.47916,91.6381815 497.508457,92.0483398 C497.552402,92.8686564 497.632968,93.4033191 497.750156,93.6523438 C497.80875,93.7695318 497.903964,93.8757319 498.035801,93.9709473 C498.167637,94.0661626 498.380037,94.1430661 498.673008,94.2016602 C498.965978,94.2602542 499.815579,94.3041991 501.221836,94.3334961 L501.221836,96.2670898 C498.71694,96.1791988 496.182786,96.1352539 493.619297,96.1352539 C491.334129,96.1352539 489.217451,96.1791988 487.269199,96.2670898 L487.269199,94.3334961 C488.939129,94.2749021 489.927889,94.1943365 490.235508,94.0917969 C490.41129,94.0478513 490.539462,93.9746099 490.620029,93.8720703 C490.700596,93.7695307 490.762851,93.5644547 490.806797,93.2568359 C490.909336,92.685544 490.982578,91.8212948 491.026523,90.6640625 L491.202304,84.2480469 L491.202304,76.0961914 L491.114414,71.4599609 C491.085117,69.6288971 490.997227,68.5302753 490.850742,68.1640625 C490.777499,68.0029289 490.667637,67.8784184 490.521152,67.7905273 C490.169588,67.6147452 489.085614,67.4682623 487.269199,67.3510742 Z M534.013968,80.1171875 L536.782523,75.6347656 C537.251275,74.8290975 538.642863,72.3755088 540.957328,68.2739258 C541.762996,66.8676688 542.268362,65.9521506 542.473441,65.5273438 L545.923148,65.5273438 L545.923148,66.5161133 C544.150678,68.9038205 542.239076,71.7089683 540.188285,74.9316406 C538.137493,78.154313 536.870416,80.2270462 536.387015,81.1499023 C536.064748,81.7797883 535.852348,82.3290992 535.749808,82.7978516 C535.661917,83.1347673 535.617972,83.6840782 535.617972,84.4458008 L535.617972,88.1591797 C535.617972,90.0195406 535.665579,91.3745075 535.760795,92.2241211 C535.85601,93.0737347 535.969534,93.5864249 536.101371,93.762207 C536.233207,93.9379892 536.452932,94.0698238 536.76055,94.1577148 C537.068169,94.2456059 538.034956,94.3041991 539.660941,94.3334961 L539.660941,96.2670898 C536.863076,96.1791988 534.336245,96.1352539 532.080375,96.1352539 C529.883098,96.1352539 527.656558,96.1791988 525.400687,96.2670898 L525.400687,94.3334961 C527.070617,94.2749021 528.048391,94.2089847 528.334037,94.1357422 C528.619683,94.0624996 528.817435,93.9526375 528.927299,93.8061523 C529.037162,93.6596672 529.114066,93.2202185 529.158011,92.487793 C529.245903,90.8178627 529.289847,89.3969785 529.289847,88.2250977 L529.289847,84.050293 C529.289847,83.7133772 529.01153,83.0175834 528.454886,81.9628906 C527.077926,79.4433468 525.605773,76.9604615 524.038383,74.5141602 C522.763962,72.5219627 521.577451,70.925299 520.478812,69.7241211 C519.746387,68.9331015 519.226372,68.4570321 518.918754,68.2958984 C518.728323,68.2080074 518.083798,68.1640625 516.98516,68.1640625 L516.98516,66.5161133 L521.643363,65.5932617 C522.434383,65.4174796 523.247363,65.2197277 524.082328,65 C524.975887,65.4980494 525.627736,65.9411602 526.037894,66.3293457 C526.448053,66.7175312 527.012012,67.4462837 527.729789,68.515625 C528.79913,70.0976642 529.861131,71.9213764 530.915824,73.9868164 C532.6297,77.3120283 533.662404,79.3554649 534.013968,80.1171875 Z M590.391691,92.2900391 L589.380949,94.5092773 C587.549885,95.4760791 585.905614,96.1389142 584.448088,96.4978027 C582.990561,96.8566912 581.170511,97.0361328 578.987882,97.0361328 C575.882398,97.0361328 573.135844,96.5454151 570.748136,95.5639648 C568.873127,94.7729453 567.283787,93.7255925 565.98007,92.421875 C564.676353,91.1181575 563.672945,89.7045975 562.969816,88.1811523 C561.900475,85.8813362 561.365812,83.3838025 561.365812,80.6884766 C561.365812,76.0741957 562.944166,72.3059228 566.10092,69.3835449 C569.257674,66.461167 573.714416,65 579.471281,65 C581.44883,65 583.224935,65.1464829 584.79965,65.4394531 C586.374365,65.7324233 588.201739,66.2524377 590.281828,66.9995117 L590.391691,67.2851562 C590.157315,67.9736363 589.974211,68.8378854 589.842375,69.8779297 C589.622647,71.5332114 589.483488,73.0639578 589.424894,74.4702148 L587.711027,74.4702148 C587.68173,72.8588787 587.608489,71.5698291 587.4913,70.6030273 C586.50985,69.5776316 585.407566,68.8122584 584.184416,68.3068848 C582.961265,67.8015111 581.39756,67.5488281 579.493254,67.5488281 C576.050854,67.5488281 573.296975,68.6364637 571.231535,70.8117676 C569.166095,72.9870714 568.13339,76.0229297 568.13339,79.9194336 C568.13339,82.2778438 568.481287,84.3359287 569.177091,86.09375 C569.872896,87.8515713 570.7994,89.3054142 571.956632,90.4553223 C573.113865,91.6052304 574.278404,92.443845 575.450285,92.9711914 C577.046973,93.6743199 578.980547,94.0258789 581.251066,94.0258789 C582.745214,94.0258789 584.158774,93.8574236 585.491789,93.5205078 C586.824803,93.1835921 588.274984,92.6049846 589.842375,91.784668 L590.391691,92.2900391 Z M595.300523,96.2670898 L595.300523,95.1464844 C595.681384,94.9853508 596.216047,94.6997091 596.904527,94.2895508 C597.212146,94.1137687 597.409898,93.9672857 597.497789,93.8500977 C597.556383,93.7768551 597.593003,93.6962895 597.607652,93.6083984 C597.680895,93.2421857 597.746812,91.9348257 597.805406,89.6862793 C597.864,87.4377329 597.893297,84.7387853 597.893297,81.5893555 C597.893297,76.9604261 597.878648,74.1040093 597.849351,73.0200195 C597.790757,70.2660995 597.695543,68.6914082 597.563707,68.2958984 C597.505113,68.1201163 597.39525,67.9882817 597.234117,67.9003906 C596.897201,67.680663 595.776607,67.5341801 593.8723,67.4609375 L593.8723,65.5273438 C595.732661,65.6152348 597.856664,65.6591797 600.244371,65.6591797 C602.9104,65.6591797 605.43723,65.6152348 607.824937,65.5273438 L607.824937,67.4609375 C606.169655,67.5341801 605.158923,67.6660147 604.792711,67.8564453 C604.631577,67.9443364 604.514391,68.0871572 604.441148,68.2849121 C604.367906,68.482667 604.298326,69.387199 604.232408,70.9985352 C604.16649,72.6098713 604.133531,74.6459838 604.133531,77.1069336 C604.133531,77.3706068 604.140855,79.4872848 604.155504,83.4570312 C604.170152,85.5517683 604.181138,87.6281635 604.188463,89.6862793 C604.195787,91.7443951 604.206773,92.9931619 604.221422,93.4326172 C606.242916,93.5205083 607.619855,93.5644531 608.352281,93.5644531 C610.578855,93.5644531 612.519753,93.4326185 614.175035,93.1689453 C614.775624,93.0810542 615.134507,92.9858404 615.251695,92.8833008 C615.368883,92.7807612 615.493394,92.5097678 615.62523,92.0703125 C615.9182,90.9570257 616.203842,89.6826244 616.482164,88.2470703 L618.305894,88.2470703 C618.261949,88.6572286 618.239976,88.8989254 618.239976,88.972168 L617.69066,93.4106445 C617.573472,94.8022531 617.507554,95.6372056 617.492906,95.9155273 C617.068099,96.0327154 616.643299,96.113281 616.218492,96.1572266 C615.324933,96.2304691 613.940669,96.2670898 612.06566,96.2670898 C611.801987,96.2670898 610.080812,96.2304691 606.902086,96.1572266 C604.485081,96.0986325 602.800528,96.0693359 601.848375,96.0693359 C600.412821,96.0693359 598.230225,96.1352532 595.300523,96.2670898 Z M621.742558,67.3510742 L621.742558,65.5273438 L628.883672,65.6591797 L631.84998,65.6152344 L634.816289,65.5493164 L635.629277,65.5273438 L635.629277,67.3510742 C634.047238,67.3510742 633.04383,67.490233 632.619023,67.7685547 C632.399295,67.9003913 632.252813,68.1567364 632.17957,68.5375977 C631.974491,69.4458053 631.871953,71.445297 631.871953,74.5361328 L631.871953,79.6337891 L631.893925,82.2045898 C631.893925,84.8852673 631.923222,86.5405242 631.981816,87.1704102 C632.113653,88.5473702 632.457887,89.6569782 633.014531,90.4992676 C633.571174,91.3415569 634.424437,92.0227025 635.574345,92.5427246 C636.724253,93.0627467 638.18542,93.3227539 639.95789,93.3227539 C641.994033,93.3227539 643.616331,92.974857 644.824834,92.2790527 C646.033336,91.5832485 646.893923,90.6787165 647.406621,89.5654297 C647.919319,88.4521429 648.175664,86.3354648 648.175664,83.215332 L648.175664,78.7329102 C648.175664,74.8657033 648.16834,72.5073285 648.153691,71.6577148 C648.109746,69.8120025 648.007207,68.6987324 647.846074,68.3178711 C647.743534,68.0834949 647.575079,67.9077154 647.340703,67.7905273 C646.857302,67.5415027 645.802625,67.3950198 644.17664,67.3510742 L644.17664,65.5273438 C646.828021,65.6298833 648.402712,65.6811523 648.900761,65.6811523 C649.032598,65.6811523 649.23035,65.6738282 649.494023,65.6591797 L654.371953,65.5273438 L654.371953,67.3510742 C653.009641,67.3510742 652.152716,67.4609364 651.801152,67.6806641 C651.62537,67.7978521 651.482549,68.0212386 651.372685,68.3508301 C651.262821,68.6804216 651.156621,70.163561 651.054082,72.800293 C650.951542,75.4370249 650.900273,77.5170822 650.900273,79.0405273 L650.900273,84.2041016 C650.900273,85.5224675 650.805059,86.8847586 650.614629,88.2910156 C650.424198,89.6972727 650.03968,90.8984325 649.461064,91.8945312 C648.882448,92.89063 648.065806,93.7914999 647.011113,94.597168 C645.95642,95.4028361 644.703991,96.0107401 643.253789,96.4208984 C641.803586,96.8310567 640.126357,97.0361328 638.22205,97.0361328 C635.995477,97.0361328 633.915419,96.7358428 631.981816,96.1352539 C630.575559,95.6957986 629.425668,95.1062049 628.532109,94.3664551 C627.63855,93.6267053 626.957404,92.7990768 626.488652,91.8835449 C626.0199,90.968013 625.734258,90.0854535 625.631718,89.2358398 C625.558476,88.7084935 625.521855,87.2876092 625.521855,84.9731445 L625.543828,80.7543945 L625.543828,75.1733398 C625.543828,73.1225483 625.499883,71.2768637 625.411992,69.6362305 C625.368046,68.991696 625.280157,68.5229507 625.14832,68.2299805 C625.075077,68.0688469 624.891974,67.8784191 624.599004,67.6586914 L621.742558,67.3510742 Z M659.808129,96.2670898 L659.808129,95.234375 C660.5845,94.7802712 661.229024,94.3261741 661.741722,93.8720703 C661.829613,93.1542933 661.888207,92.2753958 661.917504,91.2353516 C661.976098,89.096669 662.005394,85.2075477 662.005394,79.5678711 C662.005394,78.0590745 661.968773,75.7080238 661.895531,72.5146484 C661.851585,70.0536986 661.77102,68.6474627 661.653832,68.2958984 C661.580589,68.0761708 661.470727,67.9223637 661.324242,67.8344727 C661.016623,67.6293935 659.918001,67.4682623 658.028343,67.3510742 L658.028343,65.5273438 C658.350611,65.5273438 658.687521,65.5346679 659.039086,65.5493164 L662.071312,65.637207 C663.067411,65.6518555 664.305191,65.6591797 665.784691,65.6591797 C667.249542,65.6591797 668.399433,65.6445314 669.234398,65.6152344 C671.343784,65.5273433 672.720723,65.4833984 673.365257,65.4833984 C675.782262,65.4833984 677.646257,65.7324194 678.957298,66.2304688 C680.26834,66.7285181 681.227803,67.4499464 681.835716,68.3947754 C682.44363,69.3396043 682.747582,70.3979434 682.747582,71.5698242 C682.747582,72.8295961 682.399685,74.0014594 681.70388,75.0854492 C681.008076,76.169439 680.118193,77.0117157 679.034203,77.6123047 C678.389668,77.9785175 676.954136,78.4692352 674.727562,79.0844727 C677.393591,79.4067399 679.250262,79.8315403 680.29763,80.3588867 C681.344999,80.8862331 682.183614,81.7101995 682.8135,82.8308105 C683.443386,83.9514216 683.758324,85.2001884 683.758324,86.5771484 C683.758324,88.027351 683.436061,89.3420351 682.791527,90.5212402 C682.146993,91.7004453 681.315702,92.7075154 680.29763,93.5424805 C679.279559,94.3774456 678.111358,95.0402807 676.792992,95.5310059 C675.474626,96.021731 673.826693,96.2670898 671.849144,96.2670898 L664.466332,96.1352539 C663.279802,96.1352539 661.727083,96.1791988 659.808129,96.2670898 Z M668.135765,78.2055664 L669.410179,78.2275391 C670.406278,78.2275391 671.32912,78.1469735 672.178734,77.9858398 C673.028348,77.8247062 673.716817,77.5427266 674.244164,77.1398926 C674.77151,76.7370585 675.214621,76.1364786 675.573509,75.3381348 C675.932398,74.5397909 676.111839,73.6206107 676.111839,72.5805664 C676.111839,71.5258736 675.906763,70.6286658 675.496605,69.888916 C675.086447,69.1491662 674.551784,68.6218277 673.892601,68.3068848 C673.233418,67.9919418 672.244659,67.8344727 670.926293,67.8344727 C669.974139,67.8344727 669.10989,67.8930658 668.333519,68.0102539 C668.245628,69.0649467 668.194359,70.2807548 668.179711,71.6577148 L668.135765,75.0634766 L668.135765,78.2055664 Z M668.223656,93.8061523 C668.194359,93.4985336 668.179711,93.3081058 668.179711,93.2348633 L668.135765,90.6201172 L668.135765,80.6005859 C668.663112,80.5419919 669.227071,80.5126953 669.82766,80.5126953 C671.526887,80.5126953 672.859882,80.7141093 673.826683,81.1169434 C674.793485,81.5197774 675.569844,82.2119092 676.155785,83.1933594 C676.741725,84.1748096 677.034691,85.4565351 677.034691,87.0385742 C677.034691,89.2651479 676.474394,90.9753358 675.353783,92.1691895 C674.233172,93.3630431 672.764681,93.9599609 670.948265,93.9599609 C669.615251,93.9599609 668.707057,93.9086919 668.223656,93.8061523 Z M282.684082,130 L282.684082,129.477051 C283.26514,129.471517 283.646972,129.427247 283.82959,129.344238 C283.907064,129.311035 283.962402,129.258464 283.995605,129.186523 C284.050944,129.075846 284.089681,128.785321 284.111816,128.314941 C284.14502,127.584469 284.161621,126.953616 284.161621,126.422363 L284.161621,122.180664 C284.161621,121.428056 284.15332,120.692061 284.136719,119.972656 C284.120117,119.446937 284.079997,119.135661 284.016357,119.038818 C283.952718,118.941975 283.850343,118.870036 283.709229,118.822998 C283.568115,118.77596 283.168298,118.746908 282.509766,118.73584 L282.509766,118.20459 L284.875488,118.254395 L287.382324,118.212891 C288.583177,118.196289 289.45475,118.187988 289.99707,118.187988 C290.544925,118.187988 291.062335,118.218424 291.549316,118.279297 C291.460774,118.594728 291.399903,118.868651 291.366699,119.101074 C291.355631,119.150879 291.305827,119.726394 291.217285,120.827637 L290.694336,120.827637 C290.69987,120.263181 290.6639,119.748537 290.586426,119.283691 C290.282062,119.156412 289.947267,119.070638 289.582031,119.026367 C288.962236,118.948893 288.342451,118.910156 287.722656,118.910156 C287.589843,118.910156 287.293785,118.921224 286.834473,118.943359 C286.37516,118.965495 286.045899,118.984863 285.84668,119.001465 C285.824544,119.615726 285.807943,120.191241 285.796875,120.728027 L285.763672,123.533691 C286.411136,123.566895 287.006019,123.583496 287.54834,123.583496 C288.206872,123.583496 288.768552,123.55306 289.233398,123.492188 C289.410483,123.470052 289.523926,123.425782 289.57373,123.359375 C289.623535,123.292968 289.667806,123.066083 289.706543,122.678711 L289.756348,122.097656 L290.254395,122.097656 L290.254395,122.255371 L290.212891,123.981934 L290.254395,125.916016 L289.67334,125.916016 L289.648438,125.351562 C289.63737,124.942055 289.600017,124.6875 289.536377,124.587891 C289.472737,124.488281 289.352377,124.419108 289.175293,124.380371 C288.859862,124.313965 288.248377,124.280762 287.34082,124.280762 C286.97005,124.280762 286.444339,124.294596 285.763672,124.322266 C285.736002,124.875654 285.722168,125.697423 285.722168,126.787598 C285.722168,127.811366 285.736002,128.588865 285.763672,129.120117 C286.560551,129.18099 287.454259,129.211426 288.444824,129.211426 C289.147627,129.211426 289.648436,129.189291 289.947266,129.14502 C290.246095,129.100748 290.522785,129.026042 290.777344,128.920898 C290.84375,128.749348 290.910156,128.516929 290.976562,128.223633 C291.098308,127.731117 291.178548,127.360353 291.217285,127.111328 L291.765137,127.111328 C291.621256,128.229172 291.549316,129.156084 291.549316,129.89209 C291.073403,129.96403 290.495121,130 289.814453,130 L284.858887,129.933594 C284.786946,129.933594 284.062019,129.955729 282.684082,130 Z M293.250977,127.493164 L293.749023,127.493164 C293.754557,127.814129 293.771159,128.068684 293.798828,128.256836 C293.826498,128.444988 293.873535,128.628987 293.939941,128.808838 C294.006348,128.988689 294.108723,129.140869 294.24707,129.265381 C294.385417,129.389893 294.536213,129.486735 294.699463,129.555908 C294.862712,129.625082 295.028726,129.670736 295.19751,129.692871 C295.366293,129.715007 295.622231,129.726074 295.965332,129.726074 C296.529788,129.726074 296.993244,129.576662 297.355713,129.277832 C297.718182,128.979002 297.899414,128.569501 297.899414,128.049316 C297.899414,127.816893 297.842693,127.612143 297.729248,127.435059 C297.615803,127.257974 297.452556,127.119629 297.239502,127.02002 C297.026448,126.92041 296.568526,126.790365 295.865723,126.629883 C295.16292,126.4694 294.709148,126.35319 294.504395,126.28125 C294.194497,126.165038 293.948243,126.023927 293.765625,125.85791 C293.583007,125.691894 293.437745,125.481609 293.329834,125.227051 C293.221923,124.972492 293.167969,124.695802 293.167969,124.396973 C293.167969,123.959796 293.282795,123.557212 293.512451,123.189209 C293.742107,122.821206 294.103188,122.522381 294.595703,122.292725 C295.088219,122.063069 295.624997,121.948242 296.206055,121.948242 C296.554689,121.948242 296.958657,121.996663 297.417969,122.093506 C297.877281,122.190349 298.250812,122.310709 298.538574,122.45459 C298.499837,123.068851 298.472168,123.69417 298.455566,124.330566 L297.982422,124.330566 C297.954752,123.926593 297.922933,123.660971 297.886963,123.533691 C297.850993,123.406412 297.802572,123.292969 297.741699,123.193359 C297.680827,123.09375 297.575684,122.987224 297.42627,122.873779 C297.276855,122.760335 297.084555,122.659343 296.849365,122.570801 C296.614175,122.482259 296.325034,122.437988 295.981934,122.437988 C295.494952,122.437988 295.103436,122.581867 294.807373,122.869629 C294.51131,123.157391 294.363281,123.494952 294.363281,123.882324 C294.363281,124.098146 294.406168,124.283528 294.491943,124.438477 C294.577719,124.593425 294.692545,124.719319 294.836426,124.816162 C294.980307,124.913005 295.18229,125.000162 295.442383,125.077637 L296.820312,125.417969 C297.517582,125.595053 297.997639,125.747232 298.260498,125.874512 C298.523357,126.001791 298.735025,126.199624 298.895508,126.468018 C299.05599,126.736411 299.13623,127.058755 299.13623,127.435059 C299.13623,128.182133 298.827721,128.833737 298.210693,129.389893 C297.593666,129.946048 296.767746,130.224121 295.73291,130.224121 C295.256996,130.224121 294.623376,130.152182 293.832031,130.008301 C293.394855,129.925293 293.159668,129.867188 293.126465,129.833984 C293.104329,129.817383 293.093262,129.789714 293.093262,129.750977 C293.093262,129.712239 293.098796,129.665202 293.109863,129.609863 C293.159668,129.371906 293.192871,129.139487 293.209473,128.912598 C293.226074,128.685709 293.239909,128.212569 293.250977,127.493164 Z M300.065918,123.492188 L300.065918,123.143555 C300.619306,122.933267 301.059243,122.745118 301.385742,122.579102 C301.385742,121.262038 301.369141,120.4209 301.335938,120.055664 C301.911461,119.856444 302.379067,119.643393 302.73877,119.416504 L302.937988,119.58252 C302.877116,120.041832 302.81071,121.054517 302.73877,122.620605 C303.18148,122.626139 303.447102,122.628906 303.535645,122.628906 C303.585449,122.628906 303.87044,122.623372 304.390625,122.612305 C304.678387,122.606771 304.894205,122.595703 305.038086,122.579102 L305.096191,122.637207 L304.921875,123.40918 C304.57324,123.403646 304.25228,123.400879 303.958984,123.400879 C303.665689,123.400879 303.258954,123.403646 302.73877,123.40918 L302.688965,126.787598 C302.672363,127.612146 302.677897,128.104654 302.705566,128.265137 C302.733236,128.425619 302.785807,128.565348 302.863281,128.684326 C302.940756,128.803305 303.041747,128.898763 303.16626,128.970703 C303.290772,129.042644 303.50244,129.097982 303.80127,129.136719 C304.028159,129.136719 304.212157,129.127035 304.353271,129.107666 C304.494385,129.088297 304.67285,129.039877 304.888672,128.962402 L304.988281,129.286133 C304.728189,129.490886 304.476401,129.703938 304.23291,129.925293 C304.022623,130.002767 303.826173,130.053955 303.643555,130.078857 C303.460937,130.10376 303.250652,130.116211 303.012695,130.116211 C302.7194,130.116211 302.485597,130.083008 302.311279,130.016602 C302.136962,129.950195 301.977865,129.857504 301.833984,129.738525 C301.690103,129.619547 301.571127,129.468751 301.477051,129.286133 C301.382975,129.103515 301.322103,128.815757 301.294434,128.422852 C301.299967,128.046548 301.311035,127.63428 301.327637,127.186035 C301.333171,127.097493 301.335938,127.000652 301.335938,126.895508 L301.335938,123.450684 L300.995605,123.450684 C300.718911,123.450684 300.409019,123.464518 300.065918,123.492188 Z M307.030273,124.313965 L306.590332,124.197754 C306.595866,124.070475 306.598633,123.89616 306.598633,123.674805 C306.598633,123.442382 306.595866,123.256999 306.590332,123.118652 C307.293135,122.65934 307.86865,122.349447 308.316895,122.188965 C308.659995,122.072753 309.044594,122.014648 309.470703,122.014648 C310.101566,122.014648 310.63281,122.133625 311.064453,122.371582 C311.496096,122.609539 311.817056,122.949868 312.027344,123.392578 C312.171225,123.702476 312.243164,124.125811 312.243164,124.662598 L312.209961,126.181641 L312.209961,128.655273 C312.209961,128.9209 312.232096,129.111816 312.276367,129.228027 C312.30957,129.311036 312.362142,129.371907 312.434082,129.410645 C312.489421,129.443848 312.605631,129.465983 312.782715,129.477051 L313.322266,129.526855 L313.322266,130 C312.868487,129.961263 312.470054,129.941895 312.126953,129.941895 C311.79492,129.941895 311.352216,129.961263 310.798828,130 L310.840332,128.539062 C309.71142,129.39128 309.04183,129.871337 308.831543,129.979248 C308.621255,130.087159 308.355633,130.141113 308.034668,130.141113 C307.365068,130.141113 306.843508,129.962648 306.469971,129.605713 C306.096434,129.248778 305.909668,128.774254 305.909668,128.182129 C305.909668,127.800291 305.97469,127.451662 306.104736,127.13623 C306.234783,126.820799 306.391112,126.570395 306.57373,126.38501 C306.756349,126.199625 306.941731,126.062663 307.129883,125.974121 C307.450848,125.824706 307.972408,125.664226 308.69458,125.492676 C309.416752,125.321125 310.131995,125.193848 310.840332,125.11084 C310.845866,124.585121 310.782227,124.17562 310.649414,123.882324 C310.516601,123.589028 310.292482,123.348308 309.977051,123.160156 C309.66162,122.972004 309.27702,122.87793 308.823242,122.87793 C308.496743,122.87793 308.210369,122.9222 307.964111,123.010742 C307.717854,123.099284 307.567058,123.173991 307.511719,123.234863 L307.362305,123.533691 C307.21289,123.865724 307.102214,124.125813 307.030273,124.313965 Z M310.840332,125.617188 C310.120927,125.738933 309.506676,125.874511 308.997559,126.023926 C308.488441,126.173341 308.128745,126.328287 307.918457,126.48877 C307.791178,126.582846 307.680502,126.723957 307.586426,126.912109 C307.442545,127.188803 307.370605,127.495929 307.370605,127.833496 C307.370605,128.243003 307.484048,128.56258 307.710938,128.792236 C307.937827,129.021892 308.253253,129.136719 308.657227,129.136719 C309.027997,129.136719 309.394611,129.030193 309.75708,128.817139 C310.119549,128.604084 310.48063,128.284507 310.840332,127.858398 L310.840332,125.617188 Z M314.808105,130.033203 C314.874512,129.335934 314.910482,128.895997 314.916016,128.713379 C314.949219,127.512527 314.96582,126.806967 314.96582,126.59668 L314.96582,122.902832 C314.96582,121.978674 314.949219,121.024093 314.916016,120.039062 C314.89388,119.374997 314.863444,119.004232 314.824707,118.926758 C314.797038,118.871419 314.752767,118.832682 314.691895,118.810547 C314.608886,118.77181 314.227054,118.752441 313.546387,118.752441 L313.546387,118.262695 C314.797044,118.107747 315.66585,117.914064 316.152832,117.681641 C316.224772,117.648437 316.28011,117.631836 316.318848,117.631836 C316.357585,117.631836 316.388021,117.644287 316.410156,117.669189 C316.432292,117.694092 316.443359,117.728678 316.443359,117.772949 C316.443359,117.811686 316.437826,117.867024 316.426758,117.938965 L316.418457,118.212891 C316.390788,119.203455 316.374186,120.04736 316.368652,120.744629 L316.352051,122.039551 L316.352051,123.683105 L317.497559,122.5625 C317.646973,122.435221 317.893227,122.31071 318.236328,122.188965 C318.579429,122.067219 318.94466,122.006348 319.332031,122.006348 C319.940758,122.006348 320.480304,122.148843 320.950684,122.433838 C321.421064,122.718833 321.782144,123.121417 322.033936,123.641602 C322.285727,124.161786 322.411621,124.737302 322.411621,125.368164 C322.411621,125.855146 322.339682,126.317218 322.195801,126.754395 C322.05192,127.191571 321.866538,127.581704 321.639648,127.924805 C321.473632,128.184897 321.33252,128.361979 321.216309,128.456055 L320.004395,129.327637 C319.511879,129.692873 319.12728,129.926676 318.850586,130.029053 C318.573892,130.13143 318.219729,130.182617 317.788086,130.182617 C317.417316,130.182617 317.07422,130.132813 316.758789,130.033203 C316.443358,129.933593 316.108563,129.759279 315.754395,129.510254 L315.082031,130.141113 L314.808105,130.033203 Z M316.352051,124.679199 L316.352051,127.791992 C316.352051,128.068686 316.367269,128.245768 316.397705,128.323242 C316.428141,128.400717 316.520833,128.503092 316.675781,128.630371 C316.908204,128.824057 317.177977,128.979003 317.485107,129.095215 C317.792238,129.211426 318.117349,129.269531 318.460449,129.269531 C319.262862,129.269531 319.879881,128.959639 320.311523,128.339844 C320.743166,127.720049 320.958984,126.953618 320.958984,126.040527 C320.958984,125.393063 320.856609,124.850751 320.651855,124.413574 C320.447102,123.976398 320.164878,123.64852 319.805176,123.429932 C319.445473,123.211343 319.041506,123.102051 318.593262,123.102051 C318.067543,123.102051 317.59717,123.252847 317.182129,123.554443 C316.767088,123.85604 316.490398,124.230955 316.352051,124.679199 Z M323.557129,130 L323.557129,129.526855 L324.337402,129.518555 C324.459148,129.513021 324.551839,129.492269 324.615479,129.456299 C324.679118,129.420329 324.727539,129.374675 324.760742,129.319336 C324.821615,129.208658 324.857585,129.012208 324.868652,128.72998 C324.874186,128.65804 324.893555,127.86394 324.926758,126.347656 L324.926758,122.902832 C324.926758,121.978674 324.910156,121.024093 324.876953,120.039062 C324.854818,119.374997 324.824382,119.004232 324.785645,118.926758 C324.757975,118.871419 324.713705,118.832682 324.652832,118.810547 C324.569824,118.77181 324.187992,118.752441 323.507324,118.752441 L323.507324,118.262695 C324.757982,118.107747 325.626788,117.914064 326.11377,117.681641 C326.18571,117.648437 326.241048,117.631836 326.279785,117.631836 C326.318522,117.631836 326.348958,117.644287 326.371094,117.669189 C326.393229,117.694092 326.404297,117.728678 326.404297,117.772949 C326.404297,117.811686 326.398763,117.867024 326.387695,117.938965 L326.379395,118.212891 C326.351725,119.203455 326.335124,120.04736 326.32959,120.744629 L326.312988,122.039551 L326.312988,126.347656 C326.340658,127.786466 326.357259,128.563964 326.362793,128.680176 C326.368327,128.95687 326.40153,129.158854 326.462402,129.286133 C326.484538,129.335938 326.517741,129.378825 326.562012,129.414795 C326.606283,129.450765 326.672688,129.479818 326.76123,129.501953 C326.799968,129.507487 327.107093,129.515788 327.682617,129.526855 L327.682617,130 C326.930009,129.955729 326.26872,129.933594 325.69873,129.933594 C325.15641,129.933594 324.44255,129.955729 323.557129,130 Z M330.47998,118.3125 C330.740073,118.3125 330.960041,118.403808 331.139893,118.586426 C331.319744,118.769044 331.409668,118.990396 331.409668,119.250488 C331.409668,119.505047 331.31836,119.723632 331.135742,119.90625 C330.953124,120.088868 330.734539,120.180176 330.47998,120.180176 C330.219888,120.180176 329.998536,120.088868 329.815918,119.90625 C329.6333,119.723632 329.541992,119.505047 329.541992,119.250488 C329.541992,118.990396 329.6333,118.769044 329.815918,118.586426 C329.998536,118.403808 330.219888,118.3125 330.47998,118.3125 Z M328.45459,123.168457 L328.45459,122.695312 C329.528163,122.573567 330.430172,122.341148 331.160645,121.998047 L331.343262,122.130859 C331.298991,123.309576 331.276855,124.211585 331.276855,124.836914 L331.276855,126.347656 C331.304525,127.786466 331.321126,128.563964 331.32666,128.680176 C331.332194,128.95687 331.36263,129.158854 331.417969,129.286133 C331.445638,129.335938 331.481608,129.378825 331.525879,129.414795 C331.57015,129.450765 331.636556,129.479818 331.725098,129.501953 C331.758301,129.507487 332.065427,129.515788 332.646484,129.526855 L332.646484,130 C331.805334,129.961263 331.132978,129.941895 330.629395,129.941895 C330.186684,129.941895 329.461756,129.961263 328.45459,130 L328.45459,129.526855 L329.243164,129.518555 C329.359376,129.513021 329.4493,129.492269 329.512939,129.456299 C329.576579,129.420329 329.625,129.374675 329.658203,129.319336 C329.719076,129.208658 329.757812,129.012208 329.774414,128.72998 C329.774414,128.65804 329.791015,127.86394 329.824219,126.347656 L329.824219,124.886719 C329.824219,124.06217 329.79655,123.572429 329.741211,123.41748 C329.708008,123.334472 329.648519,123.272217 329.562744,123.230713 C329.476969,123.189209 329.107588,123.168457 328.45459,123.168457 Z M333.800293,127.493164 L334.29834,127.493164 C334.303874,127.814129 334.320475,128.068684 334.348145,128.256836 C334.375814,128.444988 334.422851,128.628987 334.489258,128.808838 C334.555664,128.988689 334.65804,129.140869 334.796387,129.265381 C334.934734,129.389893 335.08553,129.486735 335.248779,129.555908 C335.412029,129.625082 335.578043,129.670736 335.746826,129.692871 C335.91561,129.715007 336.171548,129.726074 336.514648,129.726074 C337.079104,129.726074 337.54256,129.576662 337.905029,129.277832 C338.267499,128.979002 338.44873,128.569501 338.44873,128.049316 C338.44873,127.816893 338.392009,127.612143 338.278564,127.435059 C338.16512,127.257974 338.001873,127.119629 337.788818,127.02002 C337.575764,126.92041 337.117842,126.790365 336.415039,126.629883 C335.712236,126.4694 335.258465,126.35319 335.053711,126.28125 C334.743814,126.165038 334.49756,126.023927 334.314941,125.85791 C334.132323,125.691894 333.987061,125.481609 333.87915,125.227051 C333.77124,124.972492 333.717285,124.695802 333.717285,124.396973 C333.717285,123.959796 333.832111,123.557212 334.061768,123.189209 C334.291424,122.821206 334.652504,122.522381 335.14502,122.292725 C335.637535,122.063069 336.174314,121.948242 336.755371,121.948242 C337.104006,121.948242 337.507973,121.996663 337.967285,122.093506 C338.426597,122.190349 338.800129,122.310709 339.087891,122.45459 C339.049153,123.068851 339.021484,123.69417 339.004883,124.330566 L338.531738,124.330566 C338.504069,123.926593 338.47225,123.660971 338.436279,123.533691 C338.400309,123.406412 338.351888,123.292969 338.291016,123.193359 C338.230143,123.09375 338.125001,122.987224 337.975586,122.873779 C337.826171,122.760335 337.633872,122.659343 337.398682,122.570801 C337.163492,122.482259 336.874351,122.437988 336.53125,122.437988 C336.044268,122.437988 335.652752,122.581867 335.356689,122.869629 C335.060627,123.157391 334.912598,123.494952 334.912598,123.882324 C334.912598,124.098146 334.955485,124.283528 335.04126,124.438477 C335.127035,124.593425 335.241861,124.719319 335.385742,124.816162 C335.529623,124.913005 335.731607,125.000162 335.991699,125.077637 L337.369629,125.417969 C338.066898,125.595053 338.546955,125.747232 338.809814,125.874512 C339.072674,126.001791 339.284342,126.199624 339.444824,126.468018 C339.605307,126.736411 339.685547,127.058755 339.685547,127.435059 C339.685547,128.182133 339.377038,128.833737 338.76001,129.389893 C338.142982,129.946048 337.317062,130.224121 336.282227,130.224121 C335.806313,130.224121 335.172693,130.152182 334.381348,130.008301 C333.944171,129.925293 333.708985,129.867188 333.675781,129.833984 C333.653646,129.817383 333.642578,129.789714 333.642578,129.750977 C333.642578,129.712239 333.648112,129.665202 333.65918,129.609863 C333.708985,129.371906 333.742187,129.139487 333.758789,128.912598 C333.775391,128.685709 333.789225,128.212569 333.800293,127.493164 Z M340.341309,130 L340.341309,129.526855 L341.121582,129.518555 C341.243327,129.513021 341.336019,129.492269 341.399658,129.456299 C341.463298,129.420329 341.511719,129.374675 341.544922,129.319336 C341.605795,129.208658 341.641764,129.012208 341.652832,128.72998 C341.658366,128.65804 341.677734,127.86394 341.710938,126.347656 L341.710938,122.056152 C341.710938,121.131994 341.694336,120.177414 341.661133,119.192383 C341.638997,118.528317 341.608561,118.157552 341.569824,118.080078 C341.542155,118.024739 341.497884,117.986003 341.437012,117.963867 C341.354003,117.92513 340.972171,117.905762 340.291504,117.905762 L340.291504,117.416016 C341.542161,117.261067 342.410968,117.067384 342.897949,116.834961 C342.96989,116.801758 343.025228,116.785156 343.063965,116.785156 C343.102702,116.785156 343.133138,116.797607 343.155273,116.82251 C343.177409,116.847412 343.188477,116.881998 343.188477,116.92627 C343.188477,116.965007 343.182943,117.020345 343.171875,117.092285 L343.163574,117.366211 C343.135905,118.356776 343.119303,119.20068 343.11377,119.897949 L343.097168,121.192871 L343.097168,123.616699 C343.174642,123.555827 343.393227,123.367677 343.75293,123.052246 C344.112632,122.736815 344.325683,122.548666 344.39209,122.487793 C344.497234,122.388183 344.580241,122.321778 344.641113,122.288574 C344.746257,122.233235 344.90397,122.177897 345.114258,122.122559 C345.40202,122.045084 345.681477,122.006348 345.952637,122.006348 C346.461754,122.006348 346.944578,122.126708 347.401123,122.367432 C347.857668,122.608156 348.174478,122.911131 348.351562,123.276367 C348.528647,123.641603 348.617188,124.181149 348.617188,124.89502 L348.617188,126.355957 L348.64209,127.501465 C348.658691,128.215336 348.666992,128.616536 348.666992,128.705078 C348.67806,128.970704 348.711263,129.164387 348.766602,129.286133 C348.788737,129.341472 348.82194,129.387125 348.866211,129.423096 C348.910482,129.459066 348.976888,129.485351 349.06543,129.501953 C349.098633,129.507487 349.386391,129.515788 349.928711,129.526855 L349.928711,130 C349.297848,129.972331 348.838543,129.958496 348.550781,129.958496 C348.30729,129.958496 347.806482,129.972331 347.04834,130 C347.125814,129.180985 347.164551,128.384118 347.164551,127.609375 L347.164551,125.550781 C347.164551,124.908851 347.117513,124.446779 347.023438,124.164551 C346.929362,123.882323 346.737062,123.629152 346.446533,123.405029 C346.156004,123.180907 345.770022,123.068848 345.288574,123.068848 C344.984211,123.068848 344.713055,123.113118 344.475098,123.20166 C344.237141,123.290202 344.018556,123.423013 343.819336,123.600098 C343.620116,123.777182 343.451335,123.968098 343.312988,124.172852 C343.246582,124.272461 343.202311,124.392822 343.180176,124.533936 C343.15804,124.67505 343.146973,124.958657 343.146973,125.384766 L343.146973,126.355957 C343.174642,127.789232 343.191243,128.563964 343.196777,128.680176 C343.207845,128.95687 343.241048,129.158854 343.296387,129.286133 C343.318522,129.341472 343.351725,129.387125 343.395996,129.423096 C343.440267,129.459066 343.506673,129.485351 343.595215,129.501953 C343.633952,129.507487 343.941078,129.515788 344.516602,129.526855 L344.516602,130 C343.531571,129.961263 342.850913,129.941895 342.474609,129.941895 C342.14811,129.941895 341.437017,129.961263 340.341309,130 Z M357.46582,128.713379 L357.200195,129.311035 C356.818357,129.548992 356.538901,129.706705 356.361816,129.78418 C356.101724,129.900391 355.804282,129.998616 355.469482,130.078857 C355.134683,130.159099 354.781903,130.199219 354.411133,130.199219 C353.68066,130.199219 353.019371,130.047039 352.427246,129.742676 C351.835121,129.438312 351.374432,128.983157 351.045166,128.377197 C350.7159,127.771237 350.55127,127.061528 350.55127,126.248047 C350.55127,125.61165 350.638427,125.037519 350.812744,124.525635 C350.987061,124.013751 351.184895,123.636069 351.40625,123.392578 C351.566733,123.215494 351.815754,123.012127 352.15332,122.782471 C352.490887,122.552815 352.825682,122.371583 353.157715,122.23877 C353.594892,122.056151 354.068031,121.964844 354.577148,121.964844 C355.196943,121.964844 355.75724,122.105956 356.258057,122.388184 C356.758873,122.670412 357.125487,123.055011 357.35791,123.541992 C357.590333,124.028974 357.706543,124.579587 357.706543,125.193848 C357.706543,125.348796 357.695475,125.536946 357.67334,125.758301 C357.2749,125.835775 356.91797,125.885579 356.602539,125.907715 C356.00488,125.951986 355.40723,125.974121 354.80957,125.974121 L352.14502,125.974121 C352.156087,126.765466 352.293049,127.406003 352.555908,127.895752 C352.818768,128.3855 353.181231,128.746581 353.643311,128.979004 C354.10539,129.211427 354.585447,129.327637 355.083496,129.327637 C355.421063,129.327637 355.757241,129.273682 356.092041,129.165771 C356.426841,129.057861 356.840492,128.860027 357.333008,128.572266 L357.46582,128.713379 Z M352.14502,125.318359 C352.299968,125.334961 352.59326,125.351562 353.024902,125.368164 C353.849451,125.395833 354.416665,125.409668 354.726562,125.409668 C355.462569,125.409668 355.946776,125.395833 356.179199,125.368164 C356.184733,125.235351 356.1875,125.132976 356.1875,125.061035 C356.1875,124.186682 356.010418,123.544761 355.65625,123.135254 C355.302082,122.725747 354.828942,122.520996 354.236816,122.520996 C353.611488,122.520996 353.107912,122.745115 352.726074,123.193359 C352.344236,123.641604 352.150553,124.34993 352.14502,125.318359 Z M363.907227,118.727539 L363.907227,118.254395 C364.521487,118.187988 365.040281,118.109131 365.463623,118.017822 C365.886965,117.926513 366.300616,117.814454 366.70459,117.681641 L366.8125,117.756348 C366.790364,118.226728 366.765462,119.134271 366.737793,120.479004 L366.70459,121.807129 L366.70459,127.003418 C366.70459,127.567874 366.714274,128.056232 366.733643,128.468506 C366.753011,128.88078 366.787597,129.127034 366.837402,129.207275 C366.887207,129.287517 366.970214,129.352539 367.086426,129.402344 C367.202637,129.452149 367.5485,129.501953 368.124023,129.551758 L368.124023,130 C367.44889,129.961263 366.972983,129.941895 366.696289,129.941895 C366.458332,129.941895 365.971358,129.961263 365.235352,130 C365.251953,129.618162 365.265788,129.103519 365.276855,128.456055 C365.0555,128.616537 364.758059,128.857258 364.384521,129.178223 C364.010984,129.499188 363.719077,129.762043 363.508789,129.966797 C363.066079,130.077475 362.675946,130.132812 362.338379,130.132812 C361.71305,130.132812 361.137535,129.977866 360.611816,129.667969 C360.086098,129.358071 359.680747,128.90845 359.395752,128.319092 C359.110757,127.729733 358.968262,127.067061 358.968262,126.331055 C358.968262,125.777667 359.055419,125.253339 359.229736,124.758057 C359.404054,124.262774 359.624022,123.879559 359.889648,123.608398 C360.039063,123.45345 360.379392,123.218263 360.910645,122.902832 C361.441897,122.587401 361.87215,122.359132 362.201416,122.218018 C362.530682,122.076904 362.888995,122.006348 363.276367,122.006348 C363.625002,122.006348 363.966714,122.049235 364.301514,122.13501 C364.636314,122.220785 364.961424,122.352213 365.276855,122.529297 L365.276855,120.346191 C365.276855,119.576982 365.243653,119.109376 365.177246,118.943359 C365.155111,118.882487 365.113607,118.838216 365.052734,118.810547 C364.942057,118.760742 364.560225,118.733073 363.907227,118.727539 Z M365.276855,123.94873 C364.900552,123.533689 364.506268,123.230714 364.093994,123.039795 C363.68172,122.848876 363.276369,122.753418 362.87793,122.753418 C362.424151,122.753418 362.00635,122.869628 361.624512,123.102051 C361.242674,123.334474 360.950766,123.68587 360.748779,124.15625 C360.546793,124.62663 360.445801,125.191077 360.445801,125.849609 C360.445801,126.86231 360.697589,127.653643 361.201172,128.223633 C361.704755,128.793623 362.310706,129.078613 363.019043,129.078613 C363.389813,129.078613 363.721841,129.00114 364.015137,128.846191 C364.308432,128.691243 364.565754,128.464357 364.787109,128.165527 C365.008465,127.866698 365.149577,127.53467 365.210449,127.169434 C365.25472,126.925943 365.276855,126.325526 365.276855,125.368164 L365.276855,123.94873 Z M374.175293,120.54541 L374.025879,120.503906 L373.942871,119.823242 L374.025879,119.740234 C374.618004,119.568684 375.262692,119.333498 375.959961,119.034668 C376.989263,118.597491 377.650552,118.3042 377.943848,118.154785 L378.159668,118.237793 C378.071126,120.772311 378.026855,122.2277 378.026855,122.604004 L378.026855,125.683594 C378.026855,126.912116 378.04069,127.841794 378.068359,128.472656 C378.084961,128.843426 378.130615,129.077229 378.205322,129.174072 C378.28003,129.270915 378.390706,129.340088 378.537354,129.381592 C378.684001,129.423096 379.164058,129.460449 379.977539,129.493652 L379.977539,130 C378.577467,129.955729 377.70036,129.933594 377.346191,129.933594 C377.080565,129.933594 376.142586,129.955729 374.532227,130 L374.532227,129.493652 C375.373377,129.443847 375.858967,129.403727 375.989014,129.373291 C376.11906,129.342855 376.215901,129.297201 376.279541,129.236328 C376.343181,129.175455 376.388834,129.089682 376.416504,128.979004 C376.460775,128.807454 376.499512,128.313562 376.532715,127.497314 C376.565918,126.681067 376.58252,126.062665 376.58252,125.64209 L376.58252,122.371582 C376.58252,121.037917 376.579753,120.202313 376.574219,119.864746 C376.574219,119.715331 376.55485,119.621257 376.516113,119.58252 C376.493978,119.560384 376.463542,119.549316 376.424805,119.549316 C376.375,119.549316 376.247722,119.593587 376.042969,119.682129 C375.102209,120.102704 374.479656,120.390461 374.175293,120.54541 Z M382.509277,130 L382.509277,129.842285 C383.505376,129.604328 384.383867,129.226646 385.144775,128.709229 C385.905684,128.191811 386.510252,127.490402 386.958496,126.60498 C387.312665,125.907711 387.534016,125.094243 387.622559,124.164551 C387.373534,124.336101 387.080243,124.571288 386.742676,124.870117 C386.543456,125.052735 386.391277,125.174479 386.286133,125.235352 C386.12565,125.340495 385.943035,125.423502 385.738281,125.484375 C385.472655,125.561849 385.184897,125.600586 384.875,125.600586 C383.989579,125.600586 383.261884,125.301761 382.691895,124.704102 C382.121905,124.106442 381.836914,123.28744 381.836914,122.24707 C381.836914,121.06282 382.193844,120.104089 382.907715,119.37085 C383.621586,118.63761 384.520828,118.270996 385.605469,118.270996 C386.297204,118.270996 386.916989,118.44116 387.464844,118.781494 C388.012698,119.121828 388.442951,119.618486 388.755615,120.271484 C389.06828,120.924482 389.224609,121.771154 389.224609,122.811523 C389.224609,124.095384 388.989423,125.218745 388.519043,126.181641 C387.949053,127.354824 387.105149,128.320471 385.987305,129.078613 C385.052079,129.71501 384.075363,130.110676 383.057129,130.265625 L382.509277,130 Z M383.272949,121.70752 C383.272949,122.177899 383.354573,122.646889 383.517822,123.114502 C383.681072,123.582115 383.939777,123.941812 384.293945,124.193604 C384.648114,124.445395 385.060382,124.571289 385.530762,124.571289 C386.178226,124.571289 386.702553,124.352704 387.10376,123.915527 C387.504966,123.478351 387.705566,122.819829 387.705566,121.939941 C387.705566,121.071122 387.516034,120.337894 387.136963,119.740234 C386.757892,119.142575 386.205896,118.84375 385.480957,118.84375 C384.850095,118.84375 384.324384,119.083087 383.903809,119.561768 C383.483234,120.040448 383.272949,120.755692 383.272949,121.70752 Z M390.1875,130 L390.1875,129.535156 C390.35905,129.319335 390.668943,128.981773 391.117188,128.522461 L392.968262,126.59668 C393.112143,126.447265 393.463539,126.057132 394.022461,125.42627 C394.443036,124.944822 394.772297,124.506268 395.010254,124.110596 C395.248211,123.714923 395.422525,123.330324 395.533203,122.956787 C395.643881,122.58325 395.699219,122.227704 395.699219,121.890137 C395.699219,121.314613 395.538739,120.816571 395.217773,120.395996 C394.802732,119.837074 394.199548,119.557617 393.408203,119.557617 C392.965493,119.557617 392.578127,119.629557 392.246094,119.773438 C391.914061,119.917318 391.691325,120.076415 391.577881,120.250732 C391.464436,120.42505 391.297039,120.924475 391.075684,121.749023 L390.577637,121.749023 C390.71045,121.007483 390.804524,120.243819 390.859863,119.458008 C391.208498,119.125975 391.500406,118.888022 391.735596,118.744141 C391.970786,118.60026 392.259927,118.485433 392.603027,118.399658 C392.946128,118.313883 393.319659,118.270996 393.723633,118.270996 C394.448571,118.270996 395.060056,118.394123 395.558105,118.640381 C396.056155,118.886639 396.454588,119.253253 396.753418,119.740234 C397.052248,120.227216 397.20166,120.777829 397.20166,121.39209 C397.20166,122.056156 397.031496,122.710527 396.691162,123.355225 C396.350828,123.999922 395.643886,124.856277 394.570312,125.924316 L393.150879,127.335449 C392.636228,127.8501 392.246095,128.259601 391.980469,128.563965 L395.624512,128.563965 C396.354984,128.563965 397.071611,128.527995 397.774414,128.456055 L397.83252,128.522461 C397.799316,128.732748 397.782715,128.979002 397.782715,129.26123 C397.782715,129.515789 397.799316,129.731607 397.83252,129.908691 L397.774414,130 C397.381508,129.977864 396.933271,129.961263 396.429688,129.950195 C395.300776,129.92806 394.545412,129.916992 394.163574,129.916992 C393.682126,129.916992 392.871425,129.92806 391.731445,129.950195 C391.106117,129.961263 390.591473,129.977864 390.1875,130 Z M401.069824,130 L401.069824,129.510254 C401.93311,129.493652 402.439452,129.470134 402.588867,129.439697 C402.738282,129.409261 402.843424,129.36084 402.904297,129.294434 C402.981771,129.200358 403.037109,129.031577 403.070312,128.788086 C403.120117,128.378579 403.14502,127.955243 403.14502,127.518066 L403.14502,126.903809 L401.327148,126.903809 C400.325516,126.903809 399.431807,126.92041 398.645996,126.953613 L398.504883,126.505371 C398.930992,125.702958 399.500973,124.720709 400.214844,123.558594 C401.255214,121.865226 402.292801,120.235522 403.327637,118.669434 C403.388509,118.641764 403.537922,118.578125 403.775879,118.478516 C404.196454,118.312499 404.437174,118.218425 404.498047,118.196289 L404.705566,118.295898 C404.666829,118.959964 404.641927,119.778966 404.630859,120.75293 C404.60319,122.806 404.589355,123.932128 404.589355,124.131348 L404.589355,125.849609 C405.341963,125.844075 405.958982,125.824707 406.44043,125.791504 C406.423828,126.068198 406.415527,126.250813 406.415527,126.339355 L406.44043,126.953613 C405.875974,126.92041 405.400067,126.903809 405.012695,126.903809 L404.589355,126.903809 L404.589355,127.459961 C404.589355,128.389653 404.630859,128.956867 404.713867,129.161621 C404.74707,129.244629 404.813476,129.311035 404.913086,129.36084 C405.123373,129.454916 405.632483,129.50472 406.44043,129.510254 L406.44043,130 C405.245111,129.955729 404.326501,129.933594 403.68457,129.933594 C402.992835,129.933594 402.121262,129.955729 401.069824,130 Z M399.600586,125.849609 L403.14502,125.849609 L403.219727,119.947754 C402.616533,120.816573 401.934493,121.879063 401.173584,123.135254 C400.412675,124.391445 399.888348,125.296221 399.600586,125.849609 Z" id="logotype"></path>
        </g>
    </g>
</svg>